<svg viewBox="0 0 241.577 345.521" xmlns="http://www.w3.org/2000/svg" xmlns:xlink="http://www.w3.org/1999/xlink" id="Layer_2" overflow="hidden"><defs><clipPath id="clippath"><rect x="0" y="0" width="241.577" height="345.521" fill="none"/></clipPath><clipPath id="clippath-1"><rect x="0" y="0" width="241.576" height="345.521" fill="none"/></clipPath></defs><g id="logo"><g id="logo-black"><g clip-path="url(#clippath)"><g clip-path="url(#clippath-1)"><path d="M144.484 327.301 140.419 331.366C140.516 332.035 140.585 332.748 140.585 333.545 140.585 338.435 138.69 340.93 135.097 340.93 131.504 340.93 129.607 338.435 129.607 333.545 129.607 328.606 131.504 326.111 135.097 326.111 135.179 326.111 135.245 326.129 135.324 326.132L143.999 326.132C144.149 326.132 144.282 326.178 144.389 326.254 142.581 323.062 139.349 321.52 135.097 321.52 128.361 321.52 124.17 325.363 124.17 333.545 124.17 341.678 128.361 345.521 135.097 345.521 141.831 345.521 146.024 341.678 146.024 333.545 146.024 330.84 145.526 328.655 144.67 326.88 144.658 327.03 144.609 327.179 144.484 327.301" fill="#1E1F1C"/><path d="M232.944 321.519C229.553 321.519 227.405 322.617 225.809 324.765 224.563 322.819 222.518 321.519 218.425 321.519 215.085 321.519 212.988 323.067 212.038 324.515 212.038 323.018 210.841 321.821 209.347 321.821 207.85 321.821 206.65 323.018 206.65 324.515L206.65 342.676C206.65 344.175 207.799 345.27 209.347 345.27 210.892 345.27 212.038 344.175 212.038 342.676L212.038 331.55C212.038 328.606 213.287 326.412 217.03 326.412 220.273 326.412 221.42 328.358 221.42 331.2L221.42 342.676C221.42 344.175 222.518 345.27 224.114 345.27 225.61 345.27 226.808 344.175 226.808 342.676L226.808 331.151C226.808 328.358 228.205 326.412 231.798 326.412 235.041 326.412 236.19 328.358 236.19 331.2L236.19 342.676C236.19 344.175 237.288 345.27 238.884 345.27 240.38 345.27 241.578 344.175 241.578 342.676L241.578 330.202C241.578 325.863 239.731 321.519 232.944 321.519" fill="#1E1F1C"/><path d="M45.6437 312.69C43.5983 312.69 42.4518 313.686 42.4518 315.984 42.4518 317.93 43.5983 319.127 45.6437 319.127 47.7377 319.127 48.8868 317.93 48.8868 315.984 48.8868 313.686 47.7377 312.69 45.6437 312.69" fill="#1E1F1C"/><path d="M28.8304 321.519C25.4393 321.519 23.2917 322.617 21.6958 324.765 20.4496 322.819 18.4042 321.519 14.3109 321.519 10.9708 321.519 8.87436 323.067 7.92444 324.515 7.92444 323.018 6.72683 321.821 5.233 321.821 3.73662 321.821 2.53645 323.018 2.53645 324.515L2.53645 342.676C2.53645 344.175 3.68554 345.27 5.233 345.27 6.7779 345.27 7.92444 344.175 7.92444 342.676L7.92444 331.55C7.92444 328.606 9.17313 326.412 12.9166 326.412 16.1597 326.412 17.3062 328.358 17.3062 331.2L17.3062 342.676C17.3062 344.175 18.4042 345.27 20.0002 345.27 21.4966 345.27 22.6942 344.175 22.6942 342.676L22.6942 331.151C22.6942 328.358 24.091 326.412 27.6838 326.412 30.9269 326.412 32.0734 328.358 32.0734 331.2L32.0734 342.676C32.0734 344.175 33.174 345.27 34.77 345.27 36.2663 345.27 37.4639 344.175 37.4639 342.676L37.4639 330.202C37.4639 325.863 35.6177 321.519 28.8304 321.519" fill="#1E1F1C"/><path d="M45.6437 321.819C44.1448 321.819 42.9472 323.02 42.9472 324.516L42.9472 342.577C42.9472 344.071 44.1448 345.269 45.6437 345.269 47.1401 345.269 48.3377 344.071 48.3377 342.577L48.3377 324.516C48.3377 323.02 47.1401 321.819 45.6437 321.819" fill="#1E1F1C"/><path d="M64.6994 321.52C62.3067 321.52 60.2128 322.519 59.2118 323.517L59.2118 312.039C59.2118 310.545 58.0142 309.348 56.5203 309.348 55.024 309.348 53.8263 310.545 53.8263 312.039L53.8263 335.539C53.8263 342.179 58.1163 345.521 64.1529 345.521 70.8866 345.521 74.8293 341.678 74.8293 333.545 74.8293 325.412 70.9888 321.52 64.6994 321.52M64.1529 340.93C61.2597 340.93 59.2118 338.984 59.2118 335.539L59.2118 328.655C59.2118 328.655 61.1576 326.109 64.1529 326.109 67.544 326.109 69.4924 328.604 69.4924 333.545 69.4924 338.435 67.5977 340.93 64.1529 340.93" fill="#1E1F1C"/><path d="M191.285 321.52C184.551 321.52 180.358 325.364 180.358 333.497 180.358 336.201 180.856 338.387 181.711 340.159 181.724 340.011 181.773 339.863 181.898 339.737L185.963 335.675C185.866 335.003 185.797 334.296 185.797 333.497 185.797 328.607 187.692 326.112 191.285 326.112 194.877 326.112 196.772 328.607 196.772 333.497 196.772 338.435 194.877 340.93 191.285 340.93 191.203 340.93 191.137 340.912 191.057 340.91L182.383 340.91C182.232 340.91 182.1 340.861 181.992 340.787 183.8 343.979 187.033 345.521 191.285 345.521 198.021 345.521 202.211 341.678 202.211 333.497 202.211 325.364 198.021 321.52 191.285 321.52" fill="#1E1F1C"/><path d="M151.61 338.684C149.513 338.684 148.315 339.782 148.315 342.026 148.315 344.223 149.513 345.27 151.61 345.27 153.706 345.27 154.853 344.223 154.853 342.026 154.853 339.782 153.706 338.684 151.61 338.684" fill="#1E1F1C"/><path d="M108.604 328.106C108.604 326.858 109.702 326.212 111.546 326.212 113.594 326.212 114.94 327.008 116.04 327.808 116.587 328.206 117.036 328.505 117.733 328.505 119.031 328.505 120.131 327.409 120.131 326.112 120.131 325.364 119.929 325.014 119.631 324.616 118.234 322.866 115.09 321.521 111.546 321.521 106.957 321.521 103.216 323.717 103.216 328.206 103.216 336.689 115.44 334.592 115.44 338.635 115.44 340.031 113.992 340.629 111.748 340.629 109.253 340.629 107.606 339.684 106.26 338.586 105.711 338.134 105.211 337.986 104.713 337.986 103.416 337.986 102.318 339.084 102.318 340.381 102.318 340.979 102.517 341.431 102.918 341.926 104.164 343.474 107.458 345.419 111.748 345.419 116.886 345.419 120.879 343.027 120.879 338.336 120.879 330.101 108.604 331.799 108.604 328.106" fill="#1E1F1C"/><path d="M95.5838 321.821C94.0875 321.821 92.8898 323.018 92.8898 324.515L92.8898 336.139C92.8898 338.437 92.0931 340.63 88.4492 340.63 84.7568 340.63 83.9601 338.437 83.9601 336.139L83.9601 324.515C83.9601 323.018 82.7625 321.821 81.2661 321.821 79.7671 321.821 78.5695 323.018 78.5695 324.515L78.5695 336.139C78.5695 341.029 80.4157 345.52 88.4492 345.52 96.4316 345.52 98.2804 341.029 98.2804 336.139L98.2804 324.515C98.2804 323.018 97.0802 321.821 95.5838 321.821" fill="#1E1F1C"/><path d="M174.622 338.434C174.124 338.434 173.672 338.534 173.126 338.935 171.979 339.782 170.48 340.929 168.187 340.929 164.691 340.929 162.799 338.286 162.799 333.496 162.799 328.805 164.691 326.111 168.187 326.111 170.682 326.111 171.979 327.359 172.628 328.057 173.075 328.557 173.672 328.904 174.474 328.904 175.82 328.904 176.867 327.857 176.867 326.512 176.867 325.912 176.719 325.511 176.318 324.964 175.421 323.815 172.776 321.519 168.187 321.519 161.4 321.519 157.36 325.363 157.36 333.496 157.36 341.629 161.4 345.52 168.187 345.52 172.278 345.52 175.021 343.723 176.17 342.676 176.767 342.127 177.017 341.529 177.017 340.829 177.017 339.484 175.97 338.434 174.622 338.434" fill="#1E1F1C"/><path d="M95.8898 131.885C96.0149 132.03 96.1809 132.104 96.3902 132.104L121.865 132.104C122.074 132.104 122.26 132.03 122.431 131.885 122.597 131.739 122.702 131.561 122.745 131.349L123.629 123.908C123.67 123.698 123.629 123.519 123.501 123.371 123.376 123.226 123.208 123.152 122.998 123.152L107.235 123.152C107.023 123.152 106.921 123.047 106.921 122.838L107.93 114.705C108.014 114.493 108.139 114.388 108.308 114.388L117.827 114.388C118.037 114.388 118.215 114.316 118.366 114.168 118.512 114.023 118.606 113.844 118.65 113.632L119.592 106.194C119.592 105.688 119.362 105.435 118.9 105.435L109.38 105.435C109.212 105.435 109.127 105.333 109.127 105.121L110.072 97.2408C110.159 97.0289 110.282 96.9242 110.45 96.9242L126.213 96.9242C126.425 96.9242 126.601 96.8527 126.749 96.7046 126.895 96.559 126.992 96.3803 127.033 96.1684L127.978 88.7298C127.978 88.2242 127.748 87.9714 127.283 87.9714L101.817 87.9714C101.605 87.9714 101.426 88.048 101.278 88.1962 101.13 88.3417 101.035 88.5204 100.994 88.7298L95.7621 131.349C95.7187 131.561 95.7621 131.739 95.8898 131.885" fill="#1E1F1C"/><path d="M66.6345 96.9893 75.4621 96.9893C75.6255 96.9893 75.7149 97.094 75.7149 97.3034L71.5526 131.35C71.5092 131.559 71.5526 131.738 71.6803 131.884 71.8054 132.032 71.9714 132.106 72.1833 132.106L80.8195 132.106C81.0288 132.106 81.2178 132.032 81.3863 131.884 81.5549 131.738 81.6596 131.559 81.703 131.35L85.8653 97.3034C85.8653 97.094 85.9674 96.9893 86.1794 96.9893L95.3849 96.9893C95.5943 96.9893 95.7705 96.9178 95.9186 96.7697 96.0667 96.6216 96.1612 96.4428 96.2021 96.2335L97.1494 88.7311C97.1494 88.2255 96.9171 87.9727 96.4549 87.9727L67.7682 87.9727C67.5563 87.9727 67.3699 88.0468 67.2014 88.1923 67.0328 88.3404 66.9281 88.5217 66.8873 88.7311L66.0037 96.2335C65.9629 96.4428 66.0037 96.6216 66.1314 96.7697 66.254 96.9178 66.4225 96.9893 66.6345 96.9893" fill="#1E1F1C"/><path d="M173.244 105.121 175.261 88.7293C175.302 88.5199 175.261 88.3412 175.133 88.1931 175.008 88.0475 174.839 87.9735 174.63 87.9735L165.93 87.9735C165.718 87.9735 165.539 88.0475 165.394 88.1931 165.246 88.3412 165.149 88.5199 165.11 88.7293L159.878 131.348C159.835 131.56 159.878 131.739 160.006 131.884 160.128 132.032 160.297 132.104 160.506 132.104L169.206 132.104C169.418 132.104 169.597 132.032 169.743 131.884 169.888 131.739 169.985 131.56 170.026 131.348L172.043 114.704C172.13 114.495 172.255 114.39 172.424 114.39L180.304 114.39C180.473 114.39 180.557 114.495 180.557 114.704L178.54 131.348C178.496 131.56 178.54 131.739 178.665 131.884 178.79 132.032 178.958 132.104 179.17 132.104L187.87 132.104C188.08 132.104 188.258 132.032 188.407 131.884 188.552 131.739 188.647 131.56 188.69 131.348L193.922 88.7293C193.963 88.5199 193.922 88.3412 193.795 88.1931 193.669 88.0475 193.501 87.9735 193.291 87.9735L184.592 87.9735C184.38 87.9735 184.203 88.0475 184.055 88.1931 183.907 88.3412 183.813 88.5199 183.772 88.7293L181.755 105.121C181.668 105.333 181.543 105.437 181.377 105.437L173.494 105.437C173.325 105.437 173.244 105.333 173.244 105.121" fill="#1E1F1C"/><path d="M148.97 102.095C148.929 102.56 149.139 102.79 149.604 102.79L158.303 102.412C158.513 102.412 158.699 102.328 158.87 102.159 159.036 101.99 159.144 101.801 159.184 101.592L159.184 101.339C159.269 100.331 159.31 99.6156 159.31 99.1969 159.31 95.5836 158.143 92.7236 155.811 90.622 153.48 88.5204 150.296 87.4684 146.258 87.4684 143.36 87.4684 140.743 88.0583 138.409 89.2329 136.077 90.4101 134.165 92.0699 132.673 94.2149 131.182 96.3599 130.268 98.8598 129.931 101.717L127.914 118.234C127.829 118.742 127.788 119.475 127.788 120.442 127.788 124.183 128.945 127.145 131.256 129.331 133.567 131.517 136.721 132.61 140.712 132.61 143.61 132.61 146.24 132.03 148.592 130.876 150.947 129.719 152.869 128.083 154.361 125.958 155.852 123.839 156.766 121.387 157.103 118.614L157.103 118.172C157.147 118.047 157.103 117.932 156.978 117.825 156.853 117.723 156.682 117.667 156.473 117.667L147.836 117.291C147.333 117.291 147.058 117.521 147.017 117.983L146.889 118.864C146.721 120.297 146.177 121.451 145.252 122.332 144.328 123.216 143.192 123.657 141.848 123.657 140.628 123.657 139.66 123.279 138.948 122.524 138.23 121.765 137.875 120.777 137.875 119.559L137.939 118.864 140.143 101.212C140.311 99.7842 140.86 98.6274 141.785 97.7464 142.709 96.8629 143.843 96.4211 145.188 96.4211 146.406 96.4211 147.364 96.7812 148.056 97.4936 148.751 98.2086 149.098 99.1739 149.098 100.394 149.098 100.729 149.077 101.002 149.034 101.212L148.97 102.095Z" fill="#1E1F1C"/><path d="M226.379 279.927 238.863 279.929 238.863 0.00128582 0.00102281 0.00128582 14.5486 14.5769 4.0816 25.044 14.5435 35.5008 4.0765 45.9652 14.5461 56.4399 4.08926 66.8967 14.5461 77.3561 4.0816 87.8205 14.5563 98.2901 4.08926 108.757 14.5486 119.211 4.08671 129.676 14.5588 140.145 4.09692 150.607 14.5563 161.064 4.09182 171.529 14.5639 181.998 4.10203 192.463 14.5588 202.922 4.10203 213.379 14.5716 223.851 4.10203 234.32 14.5639 244.775 4.10203 255.239 14.5716 265.711 1.08373 279.189 67.494 279.189 64.3812 294.745C64.3378 294.962 64.2816 295.184 64.2254 295.412 63.9829 296.387 63.6509 297.72 63.822 299.199 63.9522 300.304 64.3812 301.395 65.1039 302.454 66.8428 304.982 69.616 306.333 72.7824 306.333 74.0413 306.333 75.3615 306.121 76.7047 305.682 81.6713 304.063 85.6778 300.532 88.6349 297.585 110.544 279.894 137.497 279.886 226.379 279.927M83.3618 292.028C80.9972 294.395 77.8308 297.26 74.3324 298.402 74.1128 298.468 72.2513 299.045 71.4571 298.149 71.498 297.896 71.5924 297.526 71.6588 297.258 71.7431 296.918 71.8248 296.584 71.8887 296.254L75.3896 278.76C75.7471 276.975 75.29 275.149 74.1383 273.742 72.9841 272.338 71.2809 271.531 69.4602 271.531L19.5817 271.531 25.4038 265.714 14.9368 255.244 25.4038 244.782 14.9393 234.32 25.4012 223.848 14.9419 213.394 25.4012 202.937 14.9419 192.47 25.4012 182.003 14.9393 171.541 25.4038 161.074 14.9419 150.62 25.4038 140.158 14.9368 129.694 25.4038 119.234 14.9368 108.772 25.4038 98.3003 14.9393 87.8461 25.4012 77.3841 14.9393 66.9171 25.4038 56.4654 14.9342 45.9933 25.4038 35.5289 14.9393 25.0695 25.4038 14.5948 18.4581 7.65937 231.202 7.65937 231.202 272.269 226.381 272.266C137.579 272.256 107.702 272.236 83.658 291.763L83.3618 292.028Z" fill="#1E1F1C"/><path d="M165.164 82.1052 168.747 82.1052C168.971 82.1052 169.127 82.003 169.209 81.7987L170.248 78.7958C170.269 78.7141 170.32 78.6732 170.404 78.6732L175.978 78.6732C176.06 78.6732 176.101 78.7141 176.101 78.7958L176.407 81.7987C176.428 82.003 176.553 82.1052 176.778 82.1052L180.422 82.1052C180.646 82.1052 180.759 82.003 180.759 81.7987L180.759 81.7068 177.942 60.9617C177.919 60.7575 177.797 60.6553 177.572 60.6553L173.254 60.6553C173.026 60.6553 172.873 60.7575 172.792 60.9617L164.888 81.7068C164.804 81.9724 164.896 82.1052 165.164 82.1052M171.538 75.1493 174.663 66.4468C174.681 66.3855 174.712 66.3497 174.755 66.3395 174.794 66.3293 174.814 66.3651 174.814 66.4468L175.764 75.1493C175.764 75.2718 175.705 75.3331 175.583 75.3331L171.66 75.3331C171.596 75.3331 171.558 75.3178 171.538 75.2872 171.515 75.2565 171.515 75.2106 171.538 75.1493" fill="#1E1F1C"/><path d="M184.807 82.1054 188.576 82.1054C188.798 82.1054 188.954 82.0033 189.035 81.799L196.819 61.0539C196.898 60.7883 196.808 60.6556 196.543 60.6556L192.896 60.6556C192.672 60.6556 192.526 60.7679 192.467 60.9926L187.748 75.2415C187.728 75.3232 187.692 75.364 187.639 75.364 187.59 75.364 187.565 75.3232 187.565 75.2415L186.308 60.9926C186.308 60.8905 186.278 60.8088 186.216 60.7475 186.155 60.6862 186.073 60.6556 185.971 60.6556L182.172 60.6556C181.926 60.6556 181.804 60.7679 181.804 60.9926L181.804 61.0539 184.437 81.799C184.457 82.0033 184.582 82.1054 184.807 82.1054" fill="#1E1F1C"/><path d="M148.618 82.1054 152.05 82.1054C152.152 82.1054 152.239 82.0697 152.308 81.9982 152.382 81.9267 152.426 81.8399 152.449 81.7377L153.886 69.5726C153.907 69.4909 153.94 69.4449 153.981 69.4347 154.019 69.4245 154.052 69.45 154.073 69.5113L158.268 81.8296C158.332 82.0135 158.462 82.1054 158.669 82.1054L162.19 82.1054C162.293 82.1054 162.382 82.0697 162.453 81.9982 162.522 81.9267 162.571 81.8399 162.591 81.7377L165.135 61.0233C165.155 60.9211 165.135 60.8343 165.071 60.7628 165.012 60.6913 164.93 60.6556 164.828 60.6556L161.363 60.6556C161.261 60.6556 161.177 60.6913 161.105 60.7628 161.031 60.8343 160.988 60.9211 160.967 61.0233L159.525 73.0965C159.507 73.1782 159.476 73.2242 159.433 73.2344 159.394 73.2446 159.364 73.219 159.341 73.1578L155.145 60.9313C155.061 60.7475 154.931 60.6556 154.744 60.6556L151.251 60.6556C151.149 60.6556 151.057 60.6913 150.978 60.7628 150.896 60.8343 150.842 60.9211 150.822 61.0233L148.281 81.7377C148.281 81.9828 148.391 82.1054 148.618 82.1054" fill="#1E1F1C"/><path d="M68.7779 82.1057 82.9782 82.1057C87.1099 82.1057 90.6006 81.0536 93.458 78.9469 96.3154 76.8402 97.9701 73.7453 98.4323 69.6545 98.514 68.8221 98.5574 68.2169 98.5574 67.8415 98.5574 64.2538 97.2424 61.5215 94.6148 59.6472 94.4896 59.5195 94.5331 59.3944 94.7399 59.2718 97.7837 57.4358 99.5559 54.5145 100.059 50.5105 100.141 50.0126 100.184 49.2823 100.184 48.3221 100.184 41.6497 95.8864 38.3122 87.2963 38.3122L74.1557 38.3122C73.9489 38.3122 73.7727 38.3863 73.6246 38.5318 73.479 38.6774 73.3845 38.8536 73.3437 39.063L68.1523 81.3549C68.1089 81.5643 68.1523 81.7405 68.2774 81.8861 68.4 82.0342 68.5685 82.1057 68.7779 82.1057M81.4155 55.4542 82.3526 47.5101C82.4343 47.3007 82.5594 47.196 82.7305 47.196L86.2953 47.196C87.544 47.196 88.5041 47.4999 89.1731 48.1025 89.8396 48.7077 90.1741 49.553 90.1741 50.6357 90.1741 52.2623 89.7349 53.5263 88.8591 54.4226 87.9832 55.3189 86.7754 55.7683 85.2305 55.7683L81.6657 55.7683C81.4155 55.7683 81.3312 55.6636 81.4155 55.4542M79.2883 72.8465 80.3506 64.0878C80.3506 63.8784 80.4553 63.7737 80.6647 63.7737L84.8576 63.7737C86.0246 63.7737 86.9286 64.098 87.5772 64.7441 88.2232 65.3927 88.5475 66.3196 88.5475 67.5274 88.5475 69.3226 88.0981 70.7092 87.2018 71.6897 86.3029 72.6703 85.1258 73.1606 83.6677 73.1606L79.5386 73.1606C79.2883 73.1606 79.2041 73.0559 79.2883 72.8465" fill="#1E1F1C"/><path d="M115.071 82.6054C117.948 82.6054 120.553 82.0334 122.892 80.8869 125.229 79.7378 127.136 78.1111 128.617 76.007 130.096 73.9003 131.002 71.4694 131.337 68.7166L131.337 68.28C131.38 68.1549 131.337 68.0399 131.212 67.9352 131.086 67.8305 130.92 67.7795 130.711 67.7795L122.141 67.4041C121.641 67.4041 121.37 67.6339 121.327 68.091L121.202 68.9669C121.036 70.3866 120.492 71.5332 119.578 72.4091 118.658 73.2849 117.532 73.7216 116.197 73.7216 114.989 73.7216 114.029 73.3462 113.319 72.5955 112.609 71.8447 112.254 70.8667 112.254 69.6563L112.318 68.9669 114.509 51.4495C114.675 50.0323 115.219 48.8857 116.135 48.0098 117.05 47.134 118.178 46.6948 119.514 46.6948 120.722 46.6948 121.671 47.0497 122.358 47.7596 123.048 48.4695 123.393 49.4271 123.393 50.6349 123.393 50.972 123.37 51.2427 123.329 51.4495L123.267 52.3254C123.224 52.785 123.431 53.0148 123.893 53.0148L132.527 52.6395C132.733 52.6395 132.922 52.5552 133.091 52.3892 133.254 52.2232 133.359 52.0343 133.402 51.8249L133.402 51.5746C133.484 50.5736 133.528 49.8663 133.528 49.4475 133.528 45.8623 132.368 43.0253 130.055 40.9391 127.741 38.8554 124.583 37.811 120.576 37.811 117.698 37.811 115.104 38.3957 112.788 39.5627 110.472 40.7322 108.574 42.3793 107.096 44.5064 105.615 46.6335 104.706 49.1156 104.374 51.95L102.369 68.3413C102.287 68.8418 102.247 69.5721 102.247 70.5296 102.247 74.2451 103.393 77.1842 105.686 79.3522 107.982 81.5227 111.107 82.6054 115.071 82.6054" fill="#1E1F1C"/><path d="M132.728 81.9984C132.779 82.0699 132.866 82.1057 132.989 82.1057L136.418 82.1057C136.605 82.1057 136.745 82.0035 136.847 81.7992L146.472 61.0848C146.53 60.9418 146.535 60.8346 146.487 60.7631 146.433 60.6916 146.349 60.6558 146.226 60.6558L142.792 60.6558C142.588 60.6558 142.457 60.758 142.396 60.9622L132.744 81.6767C132.68 81.8197 132.675 81.9269 132.728 81.9984" fill="#1E1F1C"/><path d="M179.847 137.467C176.946 137.467 174.298 138.067 171.903 139.265 169.508 140.463 167.616 142.143 166.229 144.308 164.843 146.474 164.148 148.94 164.148 151.716 164.148 153.858 164.651 155.728 165.66 157.326 166.668 158.925 167.879 160.217 169.286 161.205 170.693 162.193 172.406 163.233 174.426 164.323 176.821 165.628 178.438 166.616 179.28 167.288 180.12 167.959 180.539 168.779 180.539 169.747 180.539 170.796 180.172 171.71 179.436 172.489 178.701 173.265 177.641 173.654 176.252 173.654 174.822 173.654 173.711 173.245 172.912 172.425 172.113 171.606 171.778 170.61 171.903 169.433L172.092 168.235C172.133 168.023 172.092 167.847 171.964 167.699 171.842 167.551 171.671 167.479 171.461 167.479L162.95 167.479C162.738 167.479 162.56 167.551 162.414 167.699 162.266 167.847 162.172 168.023 162.131 168.235L161.878 169.936C161.794 170.691 161.75 171.261 161.75 171.639 161.75 174.958 162.917 177.617 165.251 179.614 167.583 181.61 170.746 182.606 174.74 182.606 179.025 182.606 182.631 181.442 185.552 179.108 188.471 176.777 190.184 173.677 190.69 169.811 190.774 169.052 190.815 168.508 190.815 168.171 190.815 166.363 190.439 164.818 189.681 163.536 188.925 162.255 187.978 161.172 186.844 160.288 185.71 159.407 184.219 158.399 182.368 157.265L180.731 156.254C178.879 155.248 177.513 154.448 176.63 153.858 175.749 153.271 175.118 152.674 174.74 152.063 174.362 151.453 174.214 150.748 174.298 149.952 174.467 148.859 174.919 147.998 175.654 147.365 176.39 146.734 177.324 146.42 178.461 146.42 179.929 146.42 181.045 146.852 181.801 147.712 182.557 148.575 182.873 149.614 182.746 150.833L182.557 151.905C182.557 152.411 182.786 152.663 183.249 152.663L191.698 152.663C191.908 152.663 192.099 152.589 192.265 152.439 192.434 152.293 192.538 152.114 192.582 151.905L192.71 150.705C192.791 149.867 192.832 149.277 192.832 148.94 192.832 145.455 191.655 142.669 189.303 140.588 186.949 138.507 183.795 137.467 179.847 137.467" fill="#1E1F1C"/><path d="M93.003 175.863C94.4508 173.886 95.3446 171.596 95.6816 168.989L97.8879 151.086C97.9722 150.246 98.0156 149.635 98.0156 149.257 98.0156 145.81 96.8384 143.068 94.484 141.03 92.1296 138.992 88.9352 137.971 84.9005 137.971L71.2824 137.971C71.0731 137.971 70.8943 138.045 70.7462 138.193 70.6006 138.341 70.5036 138.52 70.4628 138.729L65.2305 181.348C65.1897 181.557 65.2305 181.736 65.3556 181.884 65.4833 182.03 65.6519 182.104 65.8612 182.104L79.4793 182.104C82.3802 182.104 84.9976 181.557 87.329 180.464 89.6629 179.372 91.55 177.839 93.003 175.863M87.5486 152.283 85.6589 167.73C85.4061 169.367 84.8265 170.672 83.9225 171.637 83.0186 172.607 81.9588 173.087 80.7383 173.087L76.7036 173.151C76.4942 173.151 76.3895 173.046 76.3895 172.834L79.5432 147.238C79.6249 147.028 79.7526 146.924 79.9186 146.924L83.8944 146.924C85.0691 146.924 85.9832 147.312 86.6344 148.09 87.2856 148.869 87.6124 149.929 87.6124 151.275 87.6124 151.737 87.5894 152.074 87.5486 152.283" fill="#1E1F1C"/><path d="M148.577 181.221 150.469 166.027C150.469 165.902 150.51 165.774 150.594 165.649L164.526 138.855C164.654 138.602 164.672 138.393 164.59 138.224 164.506 138.056 164.337 137.971 164.087 137.971L154.756 137.971C154.376 137.971 154.082 138.183 153.873 138.602L147.19 153.543C147.149 153.671 147.075 153.734 146.971 153.734 146.866 153.734 146.81 153.671 146.81 153.543L143.722 138.602C143.636 138.183 143.408 137.971 143.028 137.971L133.697 137.971C133.485 137.971 133.306 138.035 133.161 138.16 133.015 138.288 132.941 138.436 132.941 138.602L133.005 138.855 140.319 165.649 140.319 166.027 138.426 181.221C138.426 181.724 138.659 181.977 139.121 181.977L147.757 181.977C147.969 181.977 148.155 181.903 148.324 181.757 148.492 181.612 148.577 181.433 148.577 181.221" fill="#1E1F1C"/><path d="M129.222 182.103C129.727 182.103 129.977 181.873 129.977 181.411L129.977 181.286 124.242 138.603C124.199 138.184 123.946 137.972 123.484 137.972L112.766 137.972C112.304 137.972 111.988 138.184 111.822 138.603L95.6806 181.286C95.4304 181.83 95.5964 182.103 96.1837 182.103L105.139 182.103C105.558 182.103 105.851 181.893 106.02 181.475L107.976 175.862C108.101 175.693 108.229 175.609 108.351 175.609L118.629 175.609C118.757 175.609 118.839 175.693 118.88 175.862L119.449 181.411C119.449 181.873 119.681 182.103 120.144 182.103L129.222 182.103ZM117.748 167.54 111.191 167.54C111.104 167.54 111.033 167.509 110.969 167.445 110.907 167.382 110.895 167.287 110.938 167.162L116.362 151.777C116.4 151.611 116.464 151.527 116.548 151.527 116.635 151.527 116.676 151.611 116.676 151.777L118.126 167.226C118.126 167.435 117.999 167.54 117.748 167.54" fill="#1E1F1C"/><path d="M68.9056 232.297 85.9404 232.297C86.354 232.297 86.5609 232.506 86.5609 232.922L86.5609 235.553C86.5609 235.971 86.354 236.181 85.9404 236.181L63.8879 236.181C63.4742 236.181 63.2673 235.971 63.2673 235.553L63.2673 232.797C63.2673 232.547 63.3491 232.276 63.5176 231.983 67.233 226.891 71.3851 221.046 75.9687 214.447 79.2296 209.647 80.8613 205.804 80.8613 202.926 80.8613 200.753 80.2408 199.009 79.0023 197.696 77.7639 196.381 76.1321 195.722 74.1097 195.722 72.1282 195.722 70.5373 196.381 69.3397 197.696 68.1395 199.009 67.565 200.753 67.6033 202.926L67.6033 205.053C67.6033 205.472 67.3964 205.681 66.9853 205.681L63.7627 205.681C63.3491 205.681 63.1448 205.472 63.1448 205.053L63.1448 202.548C63.2265 199.333 64.2888 196.746 66.3342 194.782 68.3796 192.821 71.0123 191.838 74.2323 191.838 77.5366 191.838 80.2 192.862 82.2249 194.908 84.2473 196.953 85.2585 199.627 85.2585 202.926 85.2585 206.6 83.5655 210.941 80.1795 215.951 78.0754 219.041 74.7481 223.717 70.2079 229.978L68.7805 231.983C68.6579 232.192 68.6988 232.297 68.9056 232.297" fill="#1E1F1C"/><path d="M94.4271 233.548C92.2795 231.378 91.2071 228.477 91.2071 224.843L91.2071 203.674C91.2071 200.086 92.2795 197.204 94.4271 195.033 96.5721 192.862 99.4244 191.777 102.976 191.777 106.567 191.777 109.45 192.862 111.618 195.033 113.786 197.204 114.868 200.086 114.868 203.674L114.868 224.843C114.868 228.477 113.786 231.378 111.618 233.548 109.45 235.721 106.567 236.804 102.976 236.804 99.4244 236.804 96.5721 235.721 94.4271 233.548M108.428 230.793C109.789 229.373 110.471 227.494 110.471 225.157L110.471 203.424C110.471 201.087 109.789 199.208 108.428 197.788 107.065 196.371 105.246 195.659 102.976 195.659 100.788 195.659 99.0133 196.371 97.6471 197.788 96.2861 199.208 95.6043 201.087 95.6043 203.424L95.6043 225.157C95.6043 227.453 96.2861 229.322 97.6471 230.762 99.0133 232.202 100.788 232.923 102.976 232.923 105.246 232.923 107.065 232.213 108.428 230.793" fill="#1E1F1C"/><path d="M125.588 232.297 142.622 232.297C143.036 232.297 143.243 232.506 143.243 232.922L143.243 235.553C143.243 235.971 143.036 236.181 142.622 236.181L120.57 236.181C120.156 236.181 119.949 235.971 119.949 235.553L119.949 232.797C119.949 232.547 120.031 232.276 120.2 231.983 123.915 226.891 128.067 221.046 132.651 214.447 135.912 209.647 137.543 205.804 137.543 202.926 137.543 200.753 136.923 199.009 135.684 197.696 134.446 196.381 132.814 195.722 130.792 195.722 128.81 195.722 127.219 196.381 126.022 197.696 124.822 199.009 124.247 200.753 124.285 202.926L124.285 205.053C124.285 205.472 124.078 205.681 123.667 205.681L120.445 205.681C120.031 205.681 119.827 205.472 119.827 205.053L119.827 202.548C119.908 199.333 120.971 196.746 123.016 194.782 125.062 192.821 127.694 191.838 130.914 191.838 134.219 191.838 136.882 192.862 138.907 194.908 140.929 196.953 141.941 199.627 141.941 202.926 141.941 206.6 140.248 210.941 136.862 215.951 134.757 219.041 131.43 223.717 126.89 229.978L125.462 231.983C125.34 232.192 125.381 232.297 125.588 232.297" fill="#1E1F1C"/><path d="M170.066 222.777C170.066 225.032 169.859 226.848 169.445 228.227 168.827 230.941 167.63 233.027 165.853 234.488 164.078 235.951 161.785 236.681 158.978 236.681 156.335 236.681 154.134 236.002 152.38 234.644 150.623 233.29 149.395 231.378 148.695 228.914 148.075 227.078 147.763 225.053 147.763 222.839L147.763 202.798C147.763 199.458 148.787 196.797 150.83 194.813 152.875 192.832 155.529 191.838 158.792 191.838 161.889 191.838 164.407 192.819 166.35 194.783 168.289 196.744 169.262 199.333 169.262 202.548L169.262 203.488C169.262 203.907 169.052 204.113 168.641 204.113L165.482 204.113C165.069 204.113 164.864 203.907 164.864 203.488L164.864 202.798C164.864 200.712 164.285 199.022 163.128 197.727 161.971 196.432 160.505 195.786 158.728 195.786 156.828 195.786 155.26 196.443 154.019 197.758 152.783 199.073 152.163 200.837 152.163 203.049L152.163 212.257C152.163 212.382 152.196 212.453 152.255 212.474 152.316 212.497 152.39 212.466 152.472 212.382 154.001 210.043 156.335 208.873 159.474 208.873 161.992 208.873 164.068 209.522 165.699 210.814 167.328 212.111 168.495 213.968 169.2 216.388 169.775 218.018 170.066 220.147 170.066 222.777M165.669 222.652C165.669 220.648 165.462 218.957 165.048 217.578 164.637 215.993 163.904 214.762 162.85 213.883 161.795 213.007 160.465 212.568 158.853 212.568 157.285 212.568 155.973 213.028 154.921 213.947 153.866 214.866 153.133 216.118 152.722 217.706 152.349 219.082 152.163 220.752 152.163 222.714 152.163 224.218 152.308 225.742 152.597 227.287 152.967 228.998 153.7 230.333 154.796 231.293 155.891 232.256 157.262 232.734 158.915 232.734 160.526 232.734 161.879 232.256 162.972 231.293 164.068 230.333 164.821 228.937 165.235 227.098 165.521 225.722 165.669 224.241 165.669 222.652" fill="#1E1F1C"/></g></g></g></g></svg>