<svg viewBox="0 0 957.745 827.733" xmlns="http://www.w3.org/2000/svg" xmlns:xlink="http://www.w3.org/1999/xlink" id="Layer_2" overflow="hidden"><defs><clipPath id="clippath"><rect x="0" y="0" width="957.745" height="827.733" fill="none"/></clipPath><clipPath id="clippath-1"><rect x="0" y="0" width="957.745" height="827.733" fill="none"/></clipPath></defs><g id="insert"><g id="shape02"><g clip-path="url(#clippath)"><g clip-path="url(#clippath-1)"><path d="M43.1339 488.429C29.2169 515.966 22.5129 532.429 14.7039 556.969" stroke="#000000" stroke-width="1.275" stroke-linejoin="round" fill="none"/><path d="M78.1057 536.39C61.6037 521.674 51.1687 509.028 43.1337 488.429" stroke="#000000" stroke-width="1.275" stroke-linejoin="round" fill="none"/><path d="M14.7039 556.969C22.1809 578.121 32.3749 590.646 49.6759 604.93" stroke="#000000" stroke-width="1.275" stroke-linejoin="round" fill="none"/><path d="M49.6756 604.93C57.1196 581.537 63.5916 565.109 78.1056 536.39" stroke="#000000" stroke-width="1.275" stroke-linejoin="round" fill="none"/><path d="M819.589 521.509C735.055 614.555 633.74 692.87 513.448 754.004 423.766 798.177 313.315 837.728 214.222 824.508 146.951 813.335 104.083 779.358 97.4885 711.485 85.9645 502.28 441.603 182.238 737.451 132.586 983.768 96.3867 1030.74 282.732 819.589 521.509" stroke="#000000" stroke-width="1.275" stroke-linejoin="round" fill="none"/><path d="M811.243 484.953C817.452 499.162 818.494 505.667 819.589 521.508" stroke="#000000" stroke-width="1.275" stroke-linejoin="round" fill="none"/><path d="M753.256 588.365C749.338 574.597 747.313 569.214 740.276 556.478" stroke="#000000" stroke-width="1.275" stroke-linejoin="round" fill="none"/><path d="M740.276 556.478C768.587 530.264 785.813 512.961 811.243 484.953" stroke="#000000" stroke-width="1.275" stroke-linejoin="round" fill="none"/><path d="M761.282 64.5099C768.987 87.137 770.448 102.554 772.891 128.503" stroke="#000000" stroke-width="1.275" stroke-linejoin="round" fill="none"/><path d="M836.288 130.426C835.929 104.528 835.675 89.0736 829.106 66.5656" stroke="#000000" stroke-width="1.275" stroke-linejoin="round" fill="none"/><path d="M829.106 66.5655C806.947 63.6045 790.711 62.7795 761.282 64.5095" stroke="#000000" stroke-width="1.275" stroke-linejoin="round" fill="none"/><path d="M97.1853 692.15C183.895 716.098 295.956 682.071 378.783 646.453 495.032 594.595 601.395 521.178 694.918 428.093 765.008 356.553 837.837 262.893 857.328 164.131 858.583 156.53 860.299 146.062 860.558 135.564" stroke="#000000" stroke-width="1.275" stroke-linejoin="round" fill="none"/><path d="M705.304 508.517C688.746 489.458 678.367 479.15 660.489 461.144" stroke="#000000" stroke-width="1.275" stroke-linejoin="round" fill="none"/><path d="M726.825 394.287C746.67 409.995 758.422 419.049 776.271 436.993" stroke="#000000" stroke-width="1.275" stroke-linejoin="round" fill="none"/><path d="M776.272 436.993C751.138 464.674 733.957 481.988 705.305 508.518" stroke="#000000" stroke-width="1.275" stroke-linejoin="round" fill="none"/><path d="M122.606 464.059C104.197 490.447 93.1689 507.959 78.1059 536.39 96.9739 551.27 110.785 558.059 134.3 569.587" stroke="#000000" stroke-width="1.275" stroke-linejoin="round" fill="none"/><path d="M175.896 501.978C153.655 488.161 140.724 480.094 122.606 464.059" stroke="#000000" stroke-width="1.275" stroke-linejoin="round" fill="none"/><path d="M743.521 3.20544C593.058-16.8076 403.457 83.8165 279.587 176.752 165.427 264.49 29.4768 404.187 6.45984 543.576" stroke="#000000" stroke-width="1.275" stroke-linejoin="round" fill="none"/><path d="M951.284 284.137C957.519 246.127 959.836 212.558 952.733 174.7 936.756 101.699 891.328 47.7919 817.807 20.647 792.554 11.5109 771.211 7.33997 743.521 3.20496" stroke="#000000" stroke-width="1.275" stroke-linejoin="round" fill="none"/><path d="M680.123 1.28229C699.298 4.39526 710.149 6.28729 726.31 16.5493" stroke="#000000" stroke-width="1.275" stroke-linejoin="round" fill="none"/><path d="M726.31 16.5492C752.003 15.0462 768.622 15.2032 794.134 18.6042" stroke="#000000" stroke-width="1.275" stroke-linejoin="round" fill="none"/><path d="M794.134 18.6047C784.015 12.5697 778.099 9.37866 756.72 5.26965" stroke="#000000" stroke-width="1.275" stroke-linejoin="round" fill="none"/><path d="M6.4594 543.577C0.2324 581.63-2.0936 615.115 5.0104 653.014 21.3824 727.822 68.0894 780.565 139.936 807.067 165.316 816.239 186.556 820.377 214.222 824.508" stroke="#000000" stroke-width="1.275" stroke-linejoin="round" fill="none"/><path d="M162.778 809.25C144.109 806.252 136.116 804.88 121.128 799.329" stroke="#000000" stroke-width="1.275" stroke-linejoin="round" fill="none"/><line x1="163.609" y1="809.109" x2="167.421" y2="811.379" stroke="#000000" stroke-width="1.275" stroke-linejoin="round" fill="none"/><path d="M87.6344 416.098C82.0104 399.98 82.1214 391.852 83.1334 374.759" stroke="#000000" stroke-width="1.275" stroke-linejoin="round" fill="none"/><path d="M41.5329 442.366C39.1629 460.714 38.0399 470.643 43.1339 488.429 58.2359 459.927 69.1799 442.552 87.6349 416.098" stroke="#000000" stroke-width="1.275" stroke-linejoin="round" fill="none"/><path d="M870.109 411.616C875.737 427.742 875.614 435.905 874.614 452.956" stroke="#000000" stroke-width="1.275" stroke-linejoin="round" fill="none"/><path d="M835.137 363.655C815.094 391.442 801.05 408.976 776.271 436.993 790.889 452.701 801.447 465.863 811.243 484.954 835.72 457.279 849.826 439.735 870.109 411.616" stroke="#000000" stroke-width="1.275" stroke-linejoin="round" fill="none"/><path d="M121.456 697.288C121.819 723.08 122.036 738.525 128.638 761.148" stroke="#000000" stroke-width="1.275" stroke-linejoin="round" fill="none"/><path d="M128.638 761.148C122.052 760.053 118.46 759.548 109.409 757.395" stroke="#000000" stroke-width="1.275" stroke-linejoin="round" fill="none"/><path d="M683.275 76.797C692.176 99.011 695.067 113.984 699.974 139.989" stroke="#000000" stroke-width="1.275" stroke-linejoin="round" fill="none"/><path d="M648.303 28.8358C677.026 22.3348 696.133 19.0048 726.31 16.5488 743.893 30.2728 752.701 43.9218 761.281 64.5098 731.088 66.9678 712.005 70.2947 683.275 76.7968" stroke="#000000" stroke-width="1.275" stroke-linejoin="round" fill="none"/><path d="M781.847 325.736C804.065 339.539 817.094 347.674 835.137 363.655" stroke="#000000" stroke-width="1.275" stroke-linejoin="round" fill="none"/><path d="M38.4115 667.05C39.6965 646.019 42.0755 631.2 49.6755 604.93 69.3375 618.92 84.9495 624.866 107.722 633.654" stroke="#000000" stroke-width="1.275" stroke-linejoin="round" fill="none"/><path d="M607.209 12.7719C624.871 16.4669 633.772 18.6368 648.304 28.8359" stroke="#000000" stroke-width="1.275" stroke-linejoin="round" fill="none"/><path d="M231.435 811.167C247.602 821.423 258.371 823.307 277.62 826.431" stroke="#000000" stroke-width="1.275" stroke-linejoin="round" fill="none"/><path d="M163.609 809.109C189.108 812.509 205.753 812.665 231.434 811.167" stroke="#000000" stroke-width="1.275" stroke-linejoin="round" fill="none"/><path d="M914.611 339.288C919.665 356.943 918.628 366.698 916.21 385.348" stroke="#000000" stroke-width="1.275" stroke-linejoin="round" fill="none"/><path d="M879.639 291.327C864.55 319.785 853.574 337.243 835.137 363.655 854.92 382.929 863.152 395.914 870.109 411.616 888.553 385.192 899.515 367.758 914.611 339.288" stroke="#000000" stroke-width="1.275" stroke-linejoin="round" fill="none"/><path d="M184.855 699.214C187.307 725.316 188.781 740.621 196.463 763.207" stroke="#000000" stroke-width="1.275" stroke-linejoin="round" fill="none"/><path d="M196.463 763.207C170.779 764.705 154.139 764.55 128.637 761.148 136.483 781.911 145.21 795.454 163.609 809.109L161.982 808.839" stroke="#000000" stroke-width="1.275" stroke-linejoin="round" fill="none"/><path d="M14.9577 506.437C11.7867 526.287 10.0097 537.838 14.7037 556.969 8.2667 579.221 4.9477 594.395 3.4397 619.09" stroke="#000000" stroke-width="1.275" stroke-linejoin="round" fill="none"/><path d="M598.089 102.962C608.378 124.781 612.791 139.307 620.345 164.444" stroke="#000000" stroke-width="1.275" stroke-linejoin="round" fill="none"/><path d="M563.115 54.998C594.896 43.376 615.435 36.886 648.303 28.8361 665.105 43.0051 674 56.871 683.274 76.7971 650.456 84.834 629.818 91.3491 598.089 102.962" stroke="#000000" stroke-width="1.275" stroke-linejoin="round" fill="none"/><path d="M823.448 258.129C847.051 269.703 860.768 276.446 879.639 291.327" stroke="#000000" stroke-width="1.275" stroke-linejoin="round" fill="none"/><path d="M527.58 37.2267C543.291 42.0627 550.304 44.6967 563.115 54.9977" stroke="#000000" stroke-width="1.275" stroke-linejoin="round" fill="none"/><path d="M309.44 798.878C324.044 809.117 332.795 811.224 350.536 814.945" stroke="#000000" stroke-width="1.275" stroke-linejoin="round" fill="none"/><path d="M274.468 750.917C245.274 757.524 226.296 760.769 196.463 763.207 205.036 783.779 213.868 797.452 231.435 811.168 261.256 808.731 280.257 805.483 309.44 798.878" stroke="#000000" stroke-width="1.275" stroke-linejoin="round" fill="none"/><path d="M943.042 270.743C947.707 289.783 946.027 301.037 942.785 321.277" stroke="#000000" stroke-width="1.275" stroke-linejoin="round" fill="none"/><path d="M908.068 222.784C899.425 249.942 892.136 266.582 879.639 291.327 895.995 305.896 906.525 318.557 914.611 339.288 927.303 314.157 934.498 297.569 943.042 270.743" stroke="#000000" stroke-width="1.275" stroke-linejoin="round" fill="none"/><path d="M257.77 687.725C262.612 713.319 265.48 728.455 274.469 750.917" stroke="#000000" stroke-width="1.275" stroke-linejoin="round" fill="none"/><path d="M508.988 141.994C521.263 164.146 526.94 177.609 537.061 200.931" stroke="#000000" stroke-width="1.275" stroke-linejoin="round" fill="none"/><path d="M474.017 94.0331C508.242 77.1711 529.331 67.9221 563.116 54.9981 575.492 66.5591 585.218 78.3791 598.089 102.962 564.267 115.888 542.843 125.314 508.989 141.994" stroke="#000000" stroke-width="1.275" stroke-linejoin="round" fill="none"/><path d="M850.021 194.06C874.191 203.387 888.63 208.953 908.068 222.784" stroke="#000000" stroke-width="1.275" stroke-linejoin="round" fill="none"/><path d="M444.296 73.7136C457.813 80.3865 463.101 83.6376 474.017 94.0336" stroke="#000000" stroke-width="1.275" stroke-linejoin="round" fill="none"/><path d="M394.628 772.715C407.439 783.016 414.455 785.642 430.163 790.487" stroke="#000000" stroke-width="1.275" stroke-linejoin="round" fill="none"/><path d="M359.656 724.755C327.881 736.375 307.33 742.87 274.468 750.917 283.741 770.837 292.643 784.713 309.44 798.878 342.325 790.825 362.83 784.344 394.628 772.716" stroke="#000000" stroke-width="1.275" stroke-linejoin="round" fill="none"/><path d="M956.81 235.838C956.148 244.131 956.176 245.531 953.312 263.212" stroke="#000000" stroke-width="1.275" stroke-linejoin="round" fill="none"/><path d="M918.935 167.169C917.796 185.592 913.197 205.054 908.068 222.784 925.368 237.068 935.555 249.595 943.042 270.743 946.956 257.2 949.098 249.378 951.816 232.935" stroke="#000000" stroke-width="1.275" stroke-linejoin="round" fill="none"/><path d="M337.398 663.27C344.891 688.191 349.33 702.858 359.656 724.755" stroke="#000000" stroke-width="1.275" stroke-linejoin="round" fill="none"/><path d="M419.407 192.396C432.85 213.146 439.826 225.091 453.325 248.044" stroke="#000000" stroke-width="1.275" stroke-linejoin="round" fill="none"/><path d="M384.435 144.435C418.585 123.338 440.197 111.224 474.016 94.0329 488.846 109.704 498.333 123.936 508.988 141.994 476.137 158.694 454.519 170.705 419.407 192.396" stroke="#000000" stroke-width="1.275" stroke-linejoin="round" fill="none"/><path d="M860.547 135.995C864.313 137.135 872.689 139.642 878.044 141.436" stroke="#000000" stroke-width="1.275" stroke-linejoin="round" fill="none"/><path d="M181.473 390.724C156.754 418.66 142.518 436.455 122.606 464.059 102.897 444.862 94.6273 431.879 87.6343 416.098 107.616 388.395 121.883 370.583 146.502 342.763" stroke="#000000" stroke-width="1.275" stroke-linejoin="round" fill="none"/><path d="M181.473 390.724C166.859 375.016 156.296 361.852 146.502 342.763" stroke="#000000" stroke-width="1.275" stroke-linejoin="round" fill="none"/><path d="M217.467 271.235C188.407 298.158 171.494 315.237 146.502 342.763 140.277 328.521 139.258 322.058 138.155 306.208" stroke="#000000" stroke-width="1.275" stroke-linejoin="round" fill="none"/><path d="M252.439 319.196C238.774 302.856 228.442 289.491 217.467 271.235" stroke="#000000" stroke-width="1.275" stroke-linejoin="round" fill="none"/><path d="M230.921 433.425C210.965 417.635 199.355 408.686 181.474 390.724 206.889 362.732 223.855 345.678 252.439 319.196" stroke="#000000" stroke-width="1.275" stroke-linejoin="round" fill="none"/><path d="M297.808 204.269C266.223 228.54 247.008 244.514 217.467 271.235 210.472 258.557 208.452 253.278 204.489 239.352" stroke="#000000" stroke-width="1.275" stroke-linejoin="round" fill="none"/><path d="M332.78 252.23C319.707 234.681 310.775 222.656 297.809 204.269" stroke="#000000" stroke-width="1.275" stroke-linejoin="round" fill="none"/><path d="M297.254 366.569C279.444 348.632 269.016 338.279 252.439 319.196 281.973 292.479 301.201 276.498 332.779 252.23" stroke="#000000" stroke-width="1.275" stroke-linejoin="round" fill="none"/><path d="M384.435 144.435C350.654 165.829 329.787 180.267 297.808 204.27 289.55 192.381 287.232 188.838 279.586 176.753" stroke="#000000" stroke-width="1.275" stroke-linejoin="round" fill="none"/><path d="M372.353 303.973C348.148 272.552 349.329 274.142 332.779 252.231 365.284 227.836 385.958 213.593 419.407 192.396 394.604 155.123 381.036 138.198 360.558 120.824" stroke="#000000" stroke-width="1.275" stroke-linejoin="round" fill="none"/><path d="M884.146 82.8906C866.613 74.8336 853.654 70.6426 829.106 66.5656 820.096 42.7206 810.193 30.5115 794.134 18.6046 813.844 21.8785 827.839 25.1176 849.172 34.9316" stroke="#000000" stroke-width="1.275" stroke-linejoin="round" fill="none"/><path d="M884.146 82.8906C876.285 60.3776 866.776 47.6666 849.172 34.9316" stroke="#000000" stroke-width="1.275" stroke-linejoin="round" fill="none"/><path d="M860.672 41.1819C847.065 33.3659 856.583 39.2429 843.019 31.3519" stroke="#000000" stroke-width="1.275" stroke-linejoin="round" fill="none"/><path d="M887.733 145.684C889.05 120.526 889.867 105.373 884.146 82.8903 901.276 91.7023 911.164 98.7502 924.281 112.857" stroke="#000000" stroke-width="1.275" stroke-linejoin="round" fill="none"/><path d="M924.281 112.857C920.016 100.003 917.385 93.7265 906.232 79.7345" stroke="#000000" stroke-width="1.275" stroke-linejoin="round" fill="none"/><path d="M925.247 173.698C927.815 149.174 929.289 134.611 924.281 112.858 936.101 127.026 941.778 137.154 947.968 155.312 952.584 176.33 950.737 189.81 947.392 213.38" stroke="#000000" stroke-width="1.275" stroke-linejoin="round" fill="none"/><path d="M659.935 623.444C691.405 599.274 710.851 583.099 740.276 556.478 729.208 538.068 718.64 524.451 705.304 508.517 675.82 535.189 656.49 551.261 624.965 575.486" stroke="#000000" stroke-width="1.275" stroke-linejoin="round" fill="none"/><path d="M659.935 623.444C647.075 605.187 637.364 592.13 624.965 575.486" stroke="#000000" stroke-width="1.275" stroke-linejoin="round" fill="none"/><path d="M538.338 635.321C572.14 613.901 592.959 599.507 624.965 575.486 608.178 553.259 609.953 555.62 585.392 523.744" stroke="#000000" stroke-width="1.275" stroke-linejoin="round" fill="none"/><path d="M573.312 683.28C559.636 666.643 549.664 652.343 538.338 635.321" stroke="#000000" stroke-width="1.275" stroke-linejoin="round" fill="none"/><path d="M678.157 650.961C670.661 639.1 667.946 634.964 659.935 623.444 628.006 647.421 607.041 661.907 573.312 683.28" stroke="#000000" stroke-width="1.275" stroke-linejoin="round" fill="none"/><path d="M448.755 685.72C483.722 667.945 504.961 655.928 538.338 635.321 524.542 614.008 517.355 601.667 504.419 579.67" stroke="#000000" stroke-width="1.275" stroke-linejoin="round" fill="none"/><path d="M483.726 733.681C468.86 717.973 459.326 703.637 448.755 685.72" stroke="#000000" stroke-width="1.275" stroke-linejoin="round" fill="none"/><path d="M597.185 706.89C586.448 697.78 582.513 693.939 573.312 683.28 539.245 704.312 518.001 716.257 483.727 733.68" stroke="#000000" stroke-width="1.275" stroke-linejoin="round" fill="none"/><path d="M513.449 754.003C499.904 747.303 494.67 744.102 483.727 733.681 451.231 749.691 429.832 759.26 394.628 772.715 382.344 761.24 372.563 749.408 359.656 724.754 393.526 711.81 414.848 702.425 448.755 685.72 436.477 663.56 430.808 650.115 420.682 626.783" stroke="#000000" stroke-width="1.275" stroke-linejoin="round" fill="none"/><path d="M86.5329 779.445C77.6049 772.425 75.4689 770.379 68.4389 762.818" stroke="#000000" stroke-width="1.275" stroke-linejoin="round" fill="none"/><path d="M68.4388 762.819C58.5838 755.676 58.2628 755.071 51.5148 747.978" stroke="#000000" stroke-width="1.275" stroke-linejoin="round" fill="none"/><path d="M125.263 781.236C101.609 776.727 87.453 773.98 68.439 762.818 56.536 748.564 50.874 738.338 44.746 720.362" stroke="#000000" stroke-width="1.275" stroke-linejoin="round" fill="none"/><path d="M44.746 720.363C29.947 709.376 21.051 700.11 12.047 679.38" stroke="#000000" stroke-width="1.275" stroke-linejoin="round" fill="none"/><path d="M3.4399 619.089C2.9989 637.729 3.8749 645.741 6.5429 660.019" stroke="#000000" stroke-width="1.275" stroke-linejoin="round" fill="none"/><path d="M38.4115 667.05C14.6265 648.596 2.0795 628.777 0.7645 598.702" stroke="#000000" stroke-width="1.275" stroke-linejoin="round" fill="none"/><path d="M103.117 741.554C78.7022 735.729 64.1332 732.215 44.7462 720.363 39.0812 700.608 37.9262 687.595 38.4112 667.05 58.3152 680.036 72.7902 684.324 97.1972 691.722" stroke="#000000" stroke-width="1.275" stroke-linejoin="round" fill="none"/></g></g></g></g></svg>